<svg width="250" height="250" viewBox="0 0 260 260" fill="none" xmlns="http://www.w3.org/2000/svg"><g id="Sketch-annotation-element-stroke-abstract-vine-nature-leaf-line"><path id="Vector" d="M43.5001 137.015C44.0069 134.267 44.4028 132.202 46.0061 129.87C53.2249 119.37 67.5532 113.638 80.0702 115.155C97.9039 117.317 111.284 136.787 99.5073 153.246C89.4569 167.293 66.0959 161.911 64.7468 144.126C64.068 135.179 75.8517 125.492 84.0311 131.893C87.0464 134.253 89.7438 141.164 85.0765 143.342" stroke="#000000" stroke-width="10" stroke-miterlimit="1.5" stroke-linecap="round" stroke-linejoin="round"></path><path id="Vector_2" d="M108.899 99.2114C108.464 98.1959 108.413 97.1293 108.704 96.0645C109.577 92.8598 113.16 90.7476 116.343 90.5309C127.68 89.758 128.708 103.673 122.788 110.149C114.887 118.315 99.2824 121.377 86.1325 116.595" stroke="#000000" stroke-width="10" stroke-miterlimit="1.5" stroke-linecap="round" stroke-linejoin="round"></path><path id="Vector_3" d="M129.756 153.332C128.647 155.947 129.406 159.248 130.942 161.53C135.001 167.56 144.838 168.168 146.104 159.72C147.121 152.929 140.45 147.533 135.802 143.778C125.979 135.843 114.636 130.654 103.579 124.809C100.262 123.056 96.7948 121.697 93.4237 120.04C91.7692 119.227 89.7519 118.092 88.2979 117.477" stroke="#000000" stroke-width="10" stroke-miterlimit="1.5" stroke-linecap="round" stroke-linejoin="round"></path><path id="Vector_4" d="M146.296 128.674C146.524 128.021 146.892 127.405 147.299 126.849C148.744 124.87 150.998 122.884 153.587 122.88C157.683 122.874 161.701 127.356 161.005 131.46C160.645 133.578 159.198 135.266 157.529 136.52C154.802 138.568 151.753 138.488 148.458 138.726C140.381 139.31 133.724 137.375 126.111 135.168C123.794 134.496 121.372 133.721 119.095 132.923" stroke="#000000" stroke-width="10" stroke-miterlimit="1.5" stroke-linecap="round" stroke-linejoin="round"></path><path id="Vector_5" d="M208.141 155.082C208.294 154.72 208.576 154.414 208.868 154.157C209.681 153.444 210.687 152.88 211.767 152.736C214.159 152.418 216.255 155.273 216.294 157.387C216.428 164.786 207.914 169.11 201.492 169.001C198.521 168.952 195.658 168.015 192.861 167.107C184.824 164.5 177.443 160.554 169.868 156.866C154.99 149.622 140.39 141.724 124.77 136.185" stroke="#000000" stroke-width="10" stroke-miterlimit="1.5" stroke-linecap="round" stroke-linejoin="round"></path></g></svg>