<svg width="250" height="250" viewBox="0 0 400 400" fill="none" xmlns="http://www.w3.org/2000/svg"><g id="Sketch-annotation-element-stroke-abstract-wave-curly-line-2"><path id="Vector" d="M63.6689 179.547C67.0472 178.966 70.1379 177.569 73.0693 175.826C81.788 170.643 88.0986 161.929 90.542 152.084C90.9903 153.557 92.5174 157.601 93.0826 158.785C95.1554 163.129 97.4495 167.239 101.377 170.191C117.995 182.681 134.672 164.114 138.424 149C138.59 150.205 140.891 158.045 141.449 159.335C144.338 166.023 149.19 173.105 156.485 175.375C171.549 180.062 182.618 166.285 186.07 153.432C186.07 153.432 186.675 155.871 187.071 157.061C187.743 159.081 188.511 161.058 189.509 162.943C192.432 168.466 196.877 173.55 202.855 175.788C216.904 181.048 232.794 169.968 235.143 155.89C235.143 155.89 235.57 157.828 235.936 158.745C236.96 161.309 238.293 163.758 239.801 166.069C243.344 171.504 248.137 176.407 254.145 179.052C266.33 184.416 288.611 174.59 287.901 159.087C287.897 159.086 288.819 161.251 288.889 161.375C289.733 162.862 290.731 164.272 291.732 165.656C294.163 169.013 296.778 172.186 299.949 174.875C311.277 184.483 321.201 183.474 334.296 179.075" stroke="#000000" stroke-width="10" stroke-miterlimit="1.5" stroke-linecap="round" stroke-linejoin="round"></path><path id="Vector_2" d="M61.6677 211.778C64.9487 211.383 68.0705 210.142 71.0614 208.794C79.5227 204.98 86.063 198.873 92.0097 191.927C92.0147 191.921 94.2191 195.549 94.4371 195.852C96.5476 198.783 99.3398 201.248 102.474 203.041C114.354 209.834 129.611 205.125 135.417 192.953C135.417 194.109 137.546 197.088 137.999 197.605C141.536 201.646 145.833 205.462 150.935 207.35C163.259 211.911 179.547 205.749 185.686 194.043C185.775 195.991 187.861 199.159 188.072 199.421C191.389 203.556 196.14 206.812 201.335 207.977C213.695 210.75 227.058 204.619 232.89 193.359C233.786 196.166 235.603 199.032 236.111 199.599C239.901 203.829 244.611 207.249 250.049 208.99C263.433 213.276 281.776 205.438 287.104 196.002C286.892 196.789 287.303 198.448 287.373 198.585C288.188 200.14 289.302 201.513 290.516 202.773C293.767 206.148 297.741 208.839 301.879 211.002C314.097 217.391 332.735 217.859 340.499 204.115" stroke="#000000" stroke-width="10" stroke-miterlimit="1.5" stroke-linecap="round" stroke-linejoin="round"></path><path id="Vector_3" d="M60 249.485C63.1033 249.15 66.215 250.361 69.501 249.674C81.0648 247.254 87.8482 239.612 94.464 230.874C94.9373 232.447 95.9573 233.716 96.5418 234.405C99.552 237.959 103.382 241.123 107.768 242.816C119.514 247.348 129.144 240.217 134.773 230.519C134.773 230.519 135.49 231.655 135.917 232.172C136.713 233.138 137.55 234.072 138.419 234.974C141.647 238.322 145.474 240.978 149.935 242.409C161.536 246.131 176.062 240.742 181.847 229.85C181.895 230.234 184.719 234.476 185.003 234.819C189.045 239.702 193.875 243.234 199.919 245.213C213.407 249.63 224.722 241.175 230.703 229.544C230.923 231.083 233.757 234.498 234.045 234.825C237.48 238.74 241.255 242.249 245.91 244.677C257.708 250.833 279.037 249.635 283.115 233.635C283.067 233.626 284.183 235.621 284.359 235.883C285.588 237.71 287.03 239.399 288.598 240.946C292.437 244.727 297.186 247.615 302.177 249.609C311.621 253.383 322.326 250.884 330.497 245.169C333.047 243.386 334.762 240.456 337.194 238.788" stroke="#000000" stroke-width="10" stroke-miterlimit="1.5" stroke-linecap="round" stroke-linejoin="round"></path></g></svg>