<?xml version="1.0" encoding="UTF-8"?>
<svg xmlns="http://www.w3.org/2000/svg" xmlns:xlink="http://www.w3.org/1999/xlink" width="80px" height="69px" viewBox="0 0 79 69" version="1.1">
<g id="surface1">
<path style=" stroke:none;fill-rule:nonzero;fill:rgb(0%,0%,0%);fill-opacity:1;" d="M 64.054688 5.230469 C 64.039062 5.246094 63.285156 5.292969 62.375 5.339844 C 61.46875 5.390625 60.011719 5.46875 59.140625 5.527344 C 58.273438 5.582031 57.210938 5.648438 56.773438 5.671875 C 53.855469 5.808594 48.492188 6.355469 46.574219 6.71875 C 45.179688 6.972656 44.914062 7.007812 42.445312 7.222656 C 41.703125 7.289062 40.957031 7.417969 39.609375 7.707031 C 39.527344 7.722656 39.398438 7.6875 39.320312 7.628906 C 39.199219 7.535156 39.191406 7.519531 39.300781 7.511719 C 39.363281 7.511719 39.433594 7.484375 39.464844 7.449219 C 39.484375 7.402344 39.414062 7.402344 39.277344 7.441406 C 39.054688 7.503906 38.730469 7.46875 38.042969 7.289062 C 37.675781 7.203125 36.367188 7.289062 33.609375 7.59375 C 32.339844 7.730469 31.78125 7.808594 29.335938 8.199219 C 27.261719 8.53125 26.816406 8.597656 26.105469 8.667969 C 23.023438 8.972656 20.957031 9.238281 19.5 9.511719 C 18.75 9.652344 17.953125 9.789062 17.738281 9.824219 C 17.359375 9.882812 16.09375 10.105469 14.507812 10.394531 C 14.089844 10.472656 13.53125 10.566406 13.25 10.617188 C 12.675781 10.71875 11.84375 10.886719 10.558594 11.167969 C 9.804688 11.328125 9.582031 11.40625 9.164062 11.671875 C 8.667969 11.992188 8.160156 12.597656 8.078125 12.960938 C 8.066406 13.046875 7.90625 13.710938 7.726562 14.445312 C 7.324219 16.117188 7.289062 16.324219 7.109375 18.09375 C 6.738281 21.683594 6.671875 22.574219 6.605469 24.847656 C 6.5625 26.179688 6.484375 27.984375 6.425781 28.859375 C 6.160156 32.730469 6.054688 36.054688 6.160156 37.246094 C 6.253906 38.261719 6.476562 38.804688 6.878906 38.980469 C 7.230469 39.128906 7.75 39.203125 8.8125 39.261719 C 9.753906 39.316406 9.710938 39.296875 9.796875 39.730469 C 9.816406 39.832031 9.910156 40.15625 10.003906 40.460938 C 10.15625 40.921875 10.242188 41.066406 10.519531 41.328125 C 11.097656 41.859375 11.363281 41.910156 13.464844 41.867188 C 14.457031 41.855469 15.503906 41.804688 15.800781 41.757812 C 17.34375 41.527344 17.839844 41.457031 18.566406 41.355469 C 19.003906 41.296875 19.691406 41.183594 20.109375 41.101562 C 20.527344 41.023438 21.042969 40.929688 21.257812 40.886719 C 22.652344 40.625 23.328125 40.460938 24.632812 40.054688 C 26.0625 39.613281 26.515625 39.492188 27.792969 39.144531 C 28.132812 39.058594 28.613281 38.929688 28.871094 38.855469 C 29.128906 38.789062 29.453125 38.703125 29.589844 38.683594 C 29.726562 38.652344 30.5 38.371094 31.3125 38.070312 C 32.125 37.757812 33.625 37.222656 34.652344 36.871094 C 36.628906 36.199219 37.042969 36.007812 38.007812 35.367188 C 39.03125 34.671875 39.132812 34.558594 39.3125 33.84375 L 39.476562 33.214844 L 41.8125 33.222656 C 43.097656 33.230469 44.320312 33.257812 44.527344 33.300781 C 44.726562 33.335938 44.929688 33.351562 44.964844 33.328125 C 45 33.316406 45.152344 33.324219 45.296875 33.367188 C 45.445312 33.402344 46.136719 33.453125 46.824219 33.472656 C 47.515625 33.496094 48.3125 33.53125 48.585938 33.554688 C 49.476562 33.617188 51.027344 33.65625 54.152344 33.699219 C 56.003906 33.726562 57.992188 33.800781 59.214844 33.886719 C 62.238281 34.09375 62.625 34.132812 65.152344 34.464844 C 66.171875 34.59375 66.625 34.609375 68.132812 34.585938 C 69.84375 34.566406 69.929688 34.558594 70.210938 34.398438 C 70.648438 34.144531 71.09375 33.410156 71.257812 32.6875 C 71.546875 31.386719 71.738281 29.539062 71.890625 26.726562 C 71.933594 25.992188 71.976562 25.3125 71.996094 25.210938 C 72.046875 24.949219 72.164062 23.167969 72.214844 21.996094 C 72.234375 21.441406 72.292969 20.558594 72.335938 20.046875 C 72.386719 19.527344 72.421875 18.09375 72.421875 16.867188 C 72.429688 15.046875 72.40625 14.476562 72.300781 13.796875 C 72.226562 13.34375 72.121094 12.640625 72.0625 12.242188 L 71.953125 11.523438 L 71.582031 11.175781 C 71.371094 10.988281 70.921875 10.660156 70.5625 10.460938 C 70.210938 10.257812 69.871094 10.039062 69.828125 9.984375 C 69.777344 9.917969 69.734375 9.703125 69.734375 9.507812 C 69.734375 9.304688 69.699219 8.839844 69.65625 8.488281 C 69.59375 7.953125 69.519531 7.722656 69.246094 7.179688 L 68.925781 6.523438 L 67.773438 5.859375 L 66.617188 5.199219 L 65.355469 5.199219 C 64.65625 5.199219 64.070312 5.214844 64.054688 5.230469 Z M 54.582031 8.15625 C 54.601562 8.191406 55.199219 8.234375 55.910156 8.265625 C 56.621094 8.285156 57.273438 8.320312 57.367188 8.34375 C 57.453125 8.359375 57.75 8.378906 58.015625 8.386719 C 58.28125 8.394531 58.691406 8.421875 58.925781 8.457031 C 59.164062 8.488281 59.628906 8.53125 59.96875 8.558594 C 60.304688 8.582031 60.964844 8.648438 61.441406 8.703125 C 61.914062 8.761719 62.625 8.828125 63.019531 8.847656 C 63.414062 8.878906 64.175781 8.957031 64.707031 9.023438 C 65.238281 9.09375 65.921875 9.160156 66.214844 9.175781 C 66.648438 9.179688 66.957031 9.253906 67.78125 9.542969 C 68.652344 9.839844 69.011719 10.011719 70.03125 10.625 C 71.085938 11.253906 71.28125 11.40625 71.523438 11.746094 C 71.789062 12.113281 71.804688 12.164062 71.898438 13.054688 C 72.039062 14.402344 72.027344 19.148438 71.867188 20.769531 C 71.804688 21.441406 71.730469 22.402344 71.710938 22.898438 C 71.683594 23.398438 71.652344 23.996094 71.636719 24.234375 C 71.632812 24.472656 71.582031 25.320312 71.539062 26.113281 C 71.394531 28.9375 71.242188 30.296875 70.914062 31.820312 C 70.597656 33.285156 70.570312 33.375 70.273438 33.75 C 70.042969 34.03125 69.992188 34.058594 69.542969 34.140625 C 68.875 34.246094 65.972656 34.144531 64.3125 33.957031 C 60.457031 33.519531 58.195312 33.359375 55.894531 33.378906 C 54.863281 33.386719 53.949219 33.351562 53.597656 33.300781 L 53 33.214844 L 52.996094 32.730469 C 52.996094 32.46875 52.972656 31.785156 52.957031 31.207031 C 52.945312 30.628906 52.914062 29.472656 52.894531 28.640625 C 52.878906 27.804688 52.84375 26.472656 52.824219 25.679688 C 52.808594 24.886719 52.777344 23.203125 52.757812 21.9375 C 52.742188 20.675781 52.714844 19.625 52.6875 19.597656 C 52.664062 19.574219 52.679688 19.511719 52.722656 19.460938 C 52.824219 19.332031 52.765625 15.207031 52.648438 14.925781 C 52.601562 14.808594 52.578125 14.671875 52.601562 14.621094 C 52.621094 14.5625 52.59375 14.484375 52.550781 14.433594 C 52.5 14.382812 52.355469 14.160156 52.226562 13.933594 C 52.097656 13.710938 51.945312 13.488281 51.886719 13.4375 C 51.753906 13.320312 51.40625 13.242188 50.378906 13.074219 C 49.90625 12.996094 48.972656 12.835938 48.296875 12.714844 C 47.628906 12.597656 46.953125 12.496094 46.804688 12.496094 C 46.472656 12.496094 45.835938 12.757812 45.660156 12.964844 C 45.46875 13.191406 45.316406 13.777344 45.316406 14.296875 C 45.316406 14.554688 45.28125 15.082031 45.238281 15.457031 C 45.203125 15.835938 45.136719 16.492188 45.109375 16.910156 C 45.074219 17.335938 45.03125 17.710938 45.007812 17.75 C 44.945312 17.847656 44.734375 22.675781 44.726562 24.164062 C 44.714844 27.949219 44.722656 28.136719 44.808594 28.300781 C 44.851562 28.390625 44.863281 28.503906 44.835938 28.554688 C 44.808594 28.597656 44.777344 28.835938 44.777344 29.074219 C 44.777344 29.601562 44.605469 32.40625 44.554688 32.628906 L 44.527344 32.789062 L 42.019531 32.773438 L 39.523438 32.757812 L 39.476562 31.027344 C 39.457031 30.070312 39.386719 28.828125 39.328125 28.257812 C 39.261719 27.695312 39.183594 26.316406 39.140625 25.1875 C 39.046875 22.769531 39.027344 12.742188 39.105469 10.582031 L 39.164062 9.058594 L 39.464844 8.796875 C 39.765625 8.539062 39.789062 8.53125 40.871094 8.386719 C 43.722656 8.011719 43.347656 8.027344 49.125 8.070312 C 52.105469 8.089844 54.558594 8.125 54.582031 8.15625 Z M 38.453125 9.117188 C 38.472656 9.210938 38.515625 9.425781 38.542969 9.605469 C 38.625 10.039062 38.53125 17.273438 38.429688 19.105469 C 38.359375 20.285156 38.367188 20.914062 38.453125 22.5 C 38.507812 23.570312 38.574219 26.171875 38.59375 28.273438 C 38.636719 32.519531 38.644531 32.449219 38.164062 33.5625 C 37.925781 34.101562 37.847656 34.195312 37.1875 34.789062 C 36.792969 35.144531 36.320312 35.503906 36.140625 35.597656 C 35.84375 35.734375 34.566406 36.160156 33.035156 36.625 C 32.777344 36.695312 31.921875 36.957031 31.132812 37.203125 C 30.34375 37.441406 29.472656 37.699219 29.195312 37.78125 C 27.570312 38.25 25.582031 38.8125 25.460938 38.839844 C 25.378906 38.863281 25.121094 38.933594 24.886719 39.007812 C 24.648438 39.074219 24.195312 39.210938 23.878906 39.296875 C 23.269531 39.46875 22.621094 39.664062 21.976562 39.875 C 20.554688 40.335938 19.621094 40.605469 18.960938 40.734375 C 18.542969 40.820312 17.789062 40.964844 17.273438 41.066406 C 16.375 41.246094 13.996094 41.464844 12.890625 41.464844 C 12.34375 41.464844 11.542969 41.269531 11.226562 41.050781 C 11.109375 40.980469 10.960938 40.886719 10.878906 40.84375 C 10.664062 40.71875 10.347656 39.792969 10.234375 38.933594 C 10.089844 37.910156 10.039062 36.242188 10.125 35.359375 C 10.164062 34.960938 10.210938 32.832031 10.234375 30.628906 C 10.277344 26.503906 10.285156 26.425781 10.707031 21.886719 C 10.785156 21.035156 10.910156 20.039062 10.988281 19.683594 C 11.058594 19.324219 11.183594 18.730469 11.246094 18.371094 C 11.339844 17.863281 11.417969 17.648438 11.554688 17.496094 C 11.65625 17.386719 11.84375 17.179688 11.957031 17.035156 C 12.246094 16.679688 13.257812 16.171875 14.972656 15.53125 C 15.726562 15.25 16.582031 14.925781 16.878906 14.808594 C 17.367188 14.628906 19.996094 13.761719 21.078125 13.4375 C 21.316406 13.363281 21.78125 13.242188 22.121094 13.152344 C 22.457031 13.074219 23.296875 12.878906 23.988281 12.714844 C 24.675781 12.546875 25.503906 12.34375 25.820312 12.265625 C 26.132812 12.1875 26.464844 12.105469 26.550781 12.09375 C 26.644531 12.078125 27.175781 11.949219 27.734375 11.804688 C 28.296875 11.667969 28.898438 11.523438 29.078125 11.484375 C 29.265625 11.449219 29.769531 11.332031 30.199219 11.234375 C 31.125 11.015625 32.871094 10.648438 33.300781 10.582031 C 33.46875 10.554688 34.660156 10.183594 35.960938 9.75 C 37.253906 9.320312 38.335938 8.964844 38.367188 8.964844 C 38.394531 8.957031 38.4375 9.03125 38.453125 9.117188 Z M 49.441406 14.492188 C 49.972656 14.535156 50.066406 14.5625 50.496094 14.851562 C 51.335938 15.40625 51.480469 15.742188 51.730469 17.734375 C 51.808594 18.339844 51.816406 18.832031 51.773438 19.828125 C 51.714844 20.957031 51.753906 24.011719 51.824219 24.132812 C 51.839844 24.15625 51.800781 24.964844 51.746094 25.941406 C 51.6875 26.90625 51.636719 28.503906 51.628906 29.480469 C 51.621094 30.460938 51.59375 31.308594 51.558594 31.359375 C 51.53125 31.410156 51.535156 31.496094 51.574219 31.539062 C 51.617188 31.589844 51.664062 31.972656 51.6875 32.382812 L 51.722656 33.148438 L 51.457031 33.199219 C 51.222656 33.242188 50.640625 33.222656 49.265625 33.113281 C 49.050781 33.089844 48.40625 33.070312 47.832031 33.054688 C 46.855469 33.035156 46.144531 32.976562 45.761719 32.894531 L 45.597656 32.859375 L 45.648438 31.363281 C 45.683594 30.542969 45.707031 28.402344 45.710938 26.617188 C 45.71875 23.628906 45.753906 22.496094 45.957031 19.683594 C 46.078125 18.066406 46.242188 16.679688 46.371094 16.324219 C 46.429688 16.144531 46.617188 15.734375 46.773438 15.40625 C 47.226562 14.492188 47.808594 14.144531 48.542969 14.351562 C 48.714844 14.402344 49.117188 14.46875 49.441406 14.492188 Z M 49.441406 14.492188 "/>
<path style=" stroke:none;fill-rule:nonzero;fill:rgb(0%,0%,0%);fill-opacity:1;" d="M 62.480469 16.722656 C 62.265625 16.773438 61.714844 16.839844 61.261719 16.867188 C 60.421875 16.910156 57.855469 17.292969 57.519531 17.417969 C 57.230469 17.523438 56.851562 18.375 56.835938 18.949219 C 56.828125 19.191406 56.785156 20.644531 56.742188 22.175781 C 56.65625 24.914062 56.65625 24.957031 56.816406 25.644531 C 57.058594 26.726562 57.023438 26.667969 57.535156 26.945312 L 57.992188 27.195312 L 59.894531 27.175781 C 60.945312 27.167969 62.769531 27.132812 63.953125 27.101562 L 66.117188 27.050781 L 66.582031 26.8125 C 67.027344 26.597656 67.070312 26.554688 67.265625 26.136719 C 67.453125 25.722656 67.464844 25.59375 67.480469 24.785156 C 67.5 23.925781 67.480469 23.605469 67.285156 21.851562 C 67.242188 21.410156 67.179688 20.328125 67.148438 19.429688 C 67.101562 17.820312 67.101562 17.800781 66.878906 17.328125 C 66.699219 16.925781 66.625 16.839844 66.417969 16.773438 C 66.015625 16.652344 62.941406 16.605469 62.480469 16.722656 Z M 65.433594 17.792969 C 65.769531 18.050781 65.886719 18.609375 65.964844 20.296875 C 65.988281 20.796875 66.035156 21.382812 66.078125 21.597656 C 66.171875 22.089844 66.128906 24.496094 66.023438 24.871094 C 65.980469 25.023438 65.886719 25.210938 65.820312 25.28125 C 65.535156 25.609375 63.960938 25.953125 63.328125 25.832031 C 63.113281 25.796875 63.070312 25.746094 62.964844 25.441406 C 62.898438 25.253906 62.839844 24.9375 62.832031 24.742188 C 62.832031 24.539062 62.804688 24.199219 62.769531 23.980469 C 62.734375 23.765625 62.640625 22.933594 62.5625 22.140625 C 62.476562 21.347656 62.367188 20.484375 62.300781 20.226562 C 62.171875 19.632812 62.164062 18.847656 62.296875 18.542969 C 62.417969 18.246094 62.597656 18.09375 62.984375 17.9375 C 63.488281 17.742188 65.238281 17.640625 65.433594 17.792969 Z M 60.113281 18.519531 C 60.507812 18.609375 60.652344 19.144531 60.757812 20.933594 C 60.800781 21.679688 60.886719 22.59375 60.945312 22.976562 C 61.066406 23.816406 61.074219 25.195312 60.960938 25.578125 C 60.816406 26.078125 60.730469 26.113281 59.609375 26.113281 C 58.222656 26.113281 58.28125 26.1875 58.214844 24.503906 C 58.164062 23.261719 58.121094 21.988281 58.101562 20.730469 C 58.085938 20.03125 58.265625 18.796875 58.410156 18.660156 C 58.460938 18.609375 58.777344 18.535156 59.105469 18.507812 C 59.71875 18.441406 59.765625 18.441406 60.113281 18.519531 Z M 60.113281 18.519531 "/>
<path style=" stroke:none;fill-rule:nonzero;fill:rgb(0%,0%,0%);fill-opacity:1;" d="M 44.132812 40.734375 C 43.972656 40.804688 43.714844 41.007812 43.566406 41.183594 C 43.40625 41.355469 43.191406 41.566406 43.082031 41.644531 C 42.976562 41.722656 42.78125 41.925781 42.652344 42.09375 C 42.515625 42.257812 42.058594 42.777344 41.625 43.246094 C 41.195312 43.71875 40.714844 44.296875 40.5625 44.527344 C 40.410156 44.765625 40.269531 44.972656 40.253906 44.996094 C 40.234375 45.011719 40.109375 44.910156 39.988281 44.765625 C 39.859375 44.621094 39.523438 44.375 39.234375 44.222656 L 38.71875 43.949219 L 37.941406 44.144531 C 37.144531 44.339844 36.769531 44.476562 36.769531 44.578125 C 36.769531 44.65625 34.875 46.152344 34.292969 46.535156 C 34.011719 46.714844 33.453125 47.082031 33.035156 47.351562 C 31.921875 48.082031 31.59375 48.269531 31.277344 48.363281 C 30.996094 48.449219 30.980469 48.441406 30.832031 48.230469 C 30.679688 48.03125 30.679688 48.007812 30.789062 47.792969 C 30.851562 47.667969 31.011719 47.4375 31.140625 47.269531 C 31.527344 46.792969 31.476562 46.613281 30.882812 46.398438 C 30.257812 46.167969 29.164062 46.042969 28.707031 46.152344 C 28.296875 46.246094 27.722656 46.519531 27.722656 46.613281 C 27.722656 46.644531 27.691406 46.648438 27.648438 46.628906 C 27.578125 46.585938 26.535156 47.164062 25.683594 47.710938 C 25.4375 47.871094 25.144531 48.050781 25.027344 48.109375 C 24.90625 48.167969 24.796875 48.238281 24.777344 48.261719 C 24.734375 48.3125 24.238281 48.664062 23.835938 48.941406 C 23.691406 49.035156 23.476562 49.121094 23.371094 49.136719 C 23.183594 49.15625 23.160156 49.136719 23.183594 48.976562 C 23.199219 48.875 23.285156 48.714844 23.371094 48.613281 C 23.621094 48.332031 23.734375 48.09375 23.765625 47.835938 C 23.777344 47.640625 23.757812 47.605469 23.621094 47.605469 C 23.40625 47.605469 22.816406 47.988281 22.335938 48.433594 C 22.054688 48.703125 21.667969 48.941406 20.972656 49.28125 C 19.871094 49.820312 19.460938 50.007812 19.355469 50.023438 C 19.320312 50.023438 19.160156 50.082031 19.003906 50.152344 C 18.851562 50.21875 18.671875 50.277344 18.609375 50.277344 C 18.132812 50.277344 17.847656 49.378906 18.207031 49.019531 C 18.320312 48.902344 18.34375 48.796875 18.328125 48.390625 C 18.3125 48.167969 18.277344 48.109375 18.097656 48.035156 C 17.902344 47.957031 17.855469 47.964844 17.589844 48.144531 C 17.429688 48.261719 17.28125 48.382812 17.25 48.433594 C 17.1875 48.535156 16.042969 49.34375 15.765625 49.480469 C 15.648438 49.539062 15.535156 49.613281 15.511719 49.632812 C 15.441406 49.71875 13.457031 50.855469 12.925781 51.113281 C 12.460938 51.339844 12.332031 51.367188 11.988281 51.339844 C 11.765625 51.324219 11.546875 51.289062 11.511719 51.265625 C 10.980469 50.933594 12.253906 48.933594 13.523438 48.085938 C 13.96875 47.792969 14.078125 47.769531 14.550781 47.9375 C 14.875 48.042969 14.886719 48.042969 15.054688 47.886719 C 15.3125 47.640625 15.289062 47.292969 14.996094 47.027344 C 14.78125 46.839844 14.707031 46.816406 14.269531 46.808594 C 13.816406 46.808594 13.753906 46.832031 13.367188 47.097656 C 13.128906 47.25 12.898438 47.421875 12.847656 47.472656 C 12.789062 47.523438 12.511719 47.777344 12.230469 48.023438 C 11.691406 48.492188 11.175781 49.207031 10.835938 49.914062 C 10.628906 50.363281 10.519531 51.101562 10.59375 51.605469 C 10.636719 51.894531 10.671875 51.9375 10.917969 52.039062 C 11.324219 52.207031 12.035156 52.117188 12.746094 51.816406 C 13.0625 51.683594 13.351562 51.578125 13.386719 51.578125 C 13.421875 51.578125 13.652344 51.453125 13.890625 51.300781 C 14.507812 50.917969 14.566406 50.882812 15.046875 50.628906 C 15.28125 50.507812 15.542969 50.347656 15.621094 50.285156 C 15.699219 50.210938 15.921875 50.066406 16.109375 49.957031 C 16.296875 49.851562 16.570312 49.664062 16.710938 49.53125 L 16.96875 49.308594 L 16.925781 49.625 C 16.90625 49.863281 16.933594 50.058594 17.050781 50.328125 C 17.1875 50.679688 17.230469 50.722656 17.59375 50.863281 C 18.148438 51.070312 18.652344 51.113281 19.074219 50.976562 C 19.269531 50.917969 19.570312 50.824219 19.75 50.773438 C 19.929688 50.722656 20.394531 50.515625 20.792969 50.304688 C 21.1875 50.101562 21.726562 49.820312 21.992188 49.683594 L 22.464844 49.429688 L 22.652344 49.734375 C 22.757812 49.894531 22.929688 50.089844 23.046875 50.152344 C 23.320312 50.3125 23.707031 50.3125 23.859375 50.144531 C 23.921875 50.082031 24.023438 49.988281 24.074219 49.953125 C 24.167969 49.878906 24.863281 49.273438 25.417969 48.78125 C 25.558594 48.652344 25.695312 48.542969 25.726562 48.542969 C 25.824219 48.542969 25.863281 48.824219 25.777344 48.960938 C 25.726562 49.046875 25.710938 49.15625 25.746094 49.234375 C 25.777344 49.316406 25.796875 49.410156 25.789062 49.453125 C 25.78125 49.546875 26.308594 49.914062 26.449219 49.914062 C 26.5 49.914062 26.578125 49.953125 26.621094 49.996094 C 26.671875 50.046875 26.714844 50.046875 26.746094 50 C 26.765625 49.964844 26.925781 49.953125 27.089844 49.964844 C 27.441406 50 27.886719 49.820312 29.015625 49.179688 L 29.691406 48.78125 L 29.875 49.0625 C 30.140625 49.460938 30.492188 49.625 31.070312 49.625 C 31.535156 49.625 31.550781 49.617188 32.484375 49.035156 C 33.007812 48.707031 33.546875 48.339844 33.683594 48.21875 C 34.285156 47.683594 34.214844 47.683594 34.4375 48.230469 C 34.542969 48.515625 34.722656 48.808594 34.851562 48.917969 C 35.054688 49.105469 35.117188 49.121094 35.65625 49.121094 C 35.980469 49.121094 36.425781 49.085938 36.648438 49.046875 C 37.007812 48.976562 38.394531 48.441406 39.523438 47.9375 C 39.75 47.835938 39.960938 47.75 39.988281 47.75 C 40.015625 47.75 40.101562 47.847656 40.175781 47.964844 C 40.425781 48.398438 41.65625 48.824219 42.300781 48.714844 C 42.480469 48.6875 42.675781 48.660156 42.730469 48.652344 C 42.933594 48.636719 43.703125 48.390625 43.972656 48.253906 C 44.234375 48.125 44.238281 48.125 44.238281 48.253906 C 44.238281 48.324219 44.363281 48.476562 44.511719 48.601562 C 45.332031 49.242188 46.367188 49.070312 47.449219 48.101562 C 48.003906 47.605469 49.398438 46.171875 49.972656 45.515625 C 50.351562 45.074219 51.019531 44.5625 51.398438 44.417969 C 51.558594 44.359375 51.617188 44.367188 51.6875 44.46875 C 51.757812 44.570312 51.746094 44.628906 51.578125 44.84375 C 51.472656 44.980469 51.257812 45.320312 51.089844 45.601562 L 50.804688 46.101562 L 50.949219 46.742188 L 51.097656 47.386719 L 51.457031 47.460938 C 51.773438 47.53125 51.867188 47.523438 52.246094 47.367188 C 52.929688 47.097656 53.238281 46.859375 53.71875 46.253906 C 53.972656 45.941406 54.300781 45.566406 54.46875 45.414062 C 54.746094 45.15625 55.25 44.785156 55.335938 44.785156 C 55.449219 44.785156 55.277344 45.796875 55.011719 46.664062 C 54.832031 47.265625 54.824219 47.503906 55.003906 47.605469 C 55.222656 47.710938 55.480469 47.691406 55.601562 47.546875 C 55.722656 47.402344 56.003906 46.824219 56.253906 46.179688 C 56.46875 45.625 56.785156 45.25 57.3125 44.921875 C 57.527344 44.785156 57.871094 44.535156 58.085938 44.359375 C 58.4375 44.070312 58.488281 44.058594 58.648438 44.136719 C 58.855469 44.25 58.855469 44.230469 58.648438 45.074219 L 58.46875 45.761719 L 58.625 46.273438 C 58.769531 46.742188 58.8125 46.808594 59.128906 47.019531 C 59.449219 47.234375 59.515625 47.25 59.960938 47.222656 C 60.515625 47.191406 61.183594 46.953125 61.324219 46.730469 C 61.382812 46.648438 61.570312 46.484375 61.742188 46.359375 C 62.023438 46.171875 62.101562 46.152344 62.394531 46.195312 C 63.703125 46.375 64.105469 46.3125 65.03125 45.777344 C 66.402344 44.988281 66.648438 44.75 67.324219 43.535156 C 67.429688 43.347656 67.550781 43.195312 67.601562 43.195312 C 67.652344 43.195312 67.984375 43.054688 68.34375 42.878906 C 68.695312 42.707031 69.132812 42.539062 69.3125 42.511719 L 69.628906 42.460938 L 69.585938 43.101562 C 69.554688 43.449219 69.503906 43.832031 69.460938 43.957031 C 69.417969 44.070312 69.347656 44.351562 69.304688 44.578125 C 69.238281 44.921875 69.152344 45.0625 68.722656 45.550781 C 68.449219 45.863281 68.011719 46.324219 67.746094 46.570312 C 67.285156 46.988281 67.265625 47.027344 67.335938 47.222656 C 67.421875 47.480469 67.625 47.472656 68.386719 47.207031 C 68.894531 47.027344 68.960938 46.976562 69.195312 46.628906 C 69.628906 46 69.75 45.941406 70.617188 45.941406 C 71.027344 45.941406 71.546875 45.90625 71.773438 45.863281 C 72.207031 45.777344 73.238281 45.210938 73.707031 44.824219 C 73.957031 44.613281 73.964844 44.589844 73.859375 44.441406 C 73.722656 44.246094 73.5625 44.238281 73.046875 44.425781 C 72.664062 44.5625 70.835938 44.859375 70.375 44.859375 C 70.09375 44.859375 70.050781 44.730469 70.160156 44.179688 C 70.632812 41.78125 70.632812 41.175781 70.171875 41.175781 C 70.035156 41.175781 69.863281 41.253906 69.722656 41.382812 C 69.59375 41.5 69.160156 41.757812 68.765625 41.96875 C 68.371094 42.179688 67.925781 42.429688 67.78125 42.527344 C 67.457031 42.726562 67.367188 42.734375 67.367188 42.5625 C 67.359375 42.230469 66.675781 41.78125 66.050781 41.710938 C 65.664062 41.664062 65.605469 41.679688 64.960938 42 C 64.378906 42.285156 64.148438 42.460938 63.472656 43.109375 C 63.035156 43.535156 62.445312 44.195312 62.160156 44.570312 C 61.554688 45.378906 61.140625 45.8125 60.605469 46.179688 C 60.148438 46.492188 60.011719 46.511719 59.851562 46.265625 C 59.753906 46.109375 59.753906 46.058594 59.851562 45.695312 C 60.082031 44.917969 59.933594 43.855469 59.523438 43.421875 C 59.179688 43.039062 58.027344 43.339844 56.851562 44.121094 C 56.542969 44.332031 56.277344 44.496094 56.261719 44.496094 C 56.246094 44.496094 56.234375 44.453125 56.234375 44.394531 C 56.234375 44.273438 55.671875 43.773438 55.542969 43.773438 C 55.492188 43.773438 55.285156 43.8125 55.089844 43.855469 C 54.777344 43.917969 54.667969 44 54.207031 44.484375 C 53.304688 45.4375 52.972656 45.761719 52.75 45.871094 C 52.636719 45.929688 52.363281 46.085938 52.148438 46.210938 C 51.671875 46.5 51.523438 46.503906 51.464844 46.265625 C 51.429688 46.121094 51.488281 45.976562 51.730469 45.632812 C 52.261719 44.859375 52.355469 44.65625 52.355469 44.296875 C 52.347656 43.976562 52.332031 43.949219 52.082031 43.832031 C 51.84375 43.722656 51.773438 43.71875 51.492188 43.804688 C 50.804688 44.011719 50.199219 44.460938 48.878906 45.753906 C 47.484375 47.121094 46.015625 48.253906 45.640625 48.253906 C 45.539062 48.253906 45.359375 48.203125 45.246094 48.144531 C 45.085938 48.066406 45.042969 48 45.066406 47.84375 C 45.074219 47.734375 45.160156 47.597656 45.246094 47.53125 C 45.332031 47.472656 45.839844 47.0625 46.378906 46.628906 C 46.917969 46.1875 47.480469 45.738281 47.617188 45.640625 C 47.972656 45.363281 48.40625 44.496094 48.40625 44.050781 C 48.40625 43.722656 48.390625 43.695312 48.132812 43.566406 C 47.722656 43.355469 47.351562 43.429688 46.515625 43.90625 C 46.128906 44.121094 45.785156 44.351562 45.75 44.425781 C 45.710938 44.492188 45.5625 44.691406 45.417969 44.867188 C 45.160156 45.175781 44.527344 46.382812 44.527344 46.5625 C 44.527344 46.765625 44.210938 47.460938 44.125 47.460938 C 44.066406 47.460938 44.023438 47.480469 44.023438 47.515625 C 44.023438 47.667969 42.371094 48.074219 42.011719 48 C 40.972656 47.796875 41.023438 47.820312 40.828125 47.488281 C 40.648438 47.175781 40.640625 47.027344 40.8125 47.027344 C 40.90625 47.027344 41.597656 46.441406 42.214844 45.839844 C 43.121094 44.96875 44.152344 43.507812 44.734375 42.316406 C 45.023438 41.710938 45.125 40.914062 44.929688 40.71875 C 44.769531 40.566406 44.5 40.566406 44.132812 40.734375 Z M 44.28125 41.636719 C 44.390625 41.917969 42.949219 44.171875 42.25 44.828125 C 42.113281 44.960938 41.785156 45.269531 41.511719 45.53125 C 41.09375 45.933594 40.992188 46 40.84375 45.957031 L 40.664062 45.90625 L 40.808594 45.472656 C 40.980469 44.988281 41.246094 44.605469 42.179688 43.484375 C 43.003906 42.503906 43.335938 42.148438 43.757812 41.808594 C 44.140625 41.515625 44.226562 41.484375 44.28125 41.636719 Z M 66.496094 42.367188 C 66.640625 42.4375 66.710938 42.539062 66.734375 42.691406 C 66.761719 42.902344 66.753906 42.910156 66.476562 42.910156 C 66.308594 42.914062 65.855469 42.972656 65.460938 43.054688 C 65.066406 43.125 64.730469 43.167969 64.714844 43.152344 C 64.652344 43.089844 65.183594 42.597656 65.5 42.4375 C 65.871094 42.238281 66.210938 42.214844 66.496094 42.367188 Z M 66.648438 43.523438 C 66.648438 43.636719 66.359375 44 66.015625 44.332031 C 65.5 44.816406 64.15625 45.515625 63.652344 45.558594 L 63.292969 45.59375 L 63.257812 45.175781 C 63.234375 44.929688 63.257812 44.640625 63.308594 44.496094 L 63.394531 44.246094 L 64.105469 44.195312 C 65.089844 44.121094 65.382812 44.058594 66 43.761719 C 66.554688 43.492188 66.648438 43.457031 66.648438 43.523438 Z M 47.832031 43.96875 C 47.832031 44.207031 47.234375 45.105469 46.703125 45.660156 C 46.328125 46.050781 46.042969 46.28125 45.769531 46.410156 C 45.546875 46.511719 45.359375 46.59375 45.351562 46.59375 C 45.304688 46.59375 45.484375 45.976562 45.632812 45.640625 C 45.847656 45.148438 46.410156 44.46875 46.761719 44.265625 C 46.996094 44.136719 47.609375 43.890625 47.78125 43.855469 C 47.808594 43.855469 47.832031 43.90625 47.832031 43.96875 Z M 39.355469 45.539062 C 39.59375 45.625 39.609375 45.652344 39.585938 45.90625 C 39.570312 46.058594 39.515625 46.316406 39.457031 46.476562 C 39.40625 46.644531 39.355469 46.859375 39.355469 46.96875 C 39.355469 47.234375 38.902344 47.589844 38.078125 47.957031 C 36.886719 48.476562 36.21875 48.433594 35.902344 47.804688 C 35.78125 47.558594 35.757812 47.4375 35.800781 47.070312 C 35.824219 46.824219 35.902344 46.5625 35.964844 46.476562 C 36.132812 46.273438 36.683594 45.898438 37.109375 45.71875 C 37.699219 45.457031 38.882812 45.363281 39.355469 45.539062 Z M 30.027344 47.292969 C 30.148438 47.414062 30.140625 47.4375 29.855469 47.8125 C 29.375 48.441406 28.347656 48.992188 27.148438 49.257812 C 26.890625 49.316406 26.800781 49.308594 26.710938 49.222656 C 26.59375 49.121094 26.59375 49.078125 26.722656 48.636719 C 26.890625 48.03125 27.003906 47.871094 27.339844 47.710938 C 27.492188 47.648438 27.792969 47.503906 28.007812 47.402344 C 28.675781 47.078125 29.761719 47.019531 30.027344 47.292969 Z M 30.027344 47.292969 "/>
<path style=" stroke:none;fill-rule:nonzero;fill:rgb(0%,0%,0%);fill-opacity:1;" d="M 34.113281 52.40625 C 33.855469 52.539062 33.5625 52.726562 33.460938 52.820312 C 33.359375 52.914062 33.160156 53.085938 33.015625 53.210938 C 32.527344 53.644531 31.519531 54.964844 31.039062 55.816406 C 30.765625 56.285156 30.335938 57.023438 30.078125 57.464844 C 29.820312 57.898438 29.453125 58.613281 29.257812 59.054688 C 28.957031 59.730469 28.835938 59.914062 28.398438 60.351562 C 28.117188 60.636719 27.601562 61.089844 27.246094 61.363281 C 26.535156 61.921875 26.480469 61.984375 26.574219 62.078125 C 26.679688 62.1875 26.9375 62.074219 27.554688 61.660156 L 28.144531 61.269531 L 28.101562 61.5 C 28.082031 61.625 27.867188 62.117188 27.636719 62.59375 C 27.40625 63.070312 27.21875 63.523438 27.234375 63.605469 C 27.246094 63.71875 27.320312 63.753906 27.585938 63.769531 C 28.039062 63.800781 28.667969 63.445312 29.144531 62.902344 C 29.34375 62.679688 29.523438 62.511719 29.558594 62.542969 C 29.589844 62.570312 29.589844 62.554688 29.566406 62.511719 C 29.511719 62.410156 30.269531 61.675781 31.167969 60.953125 C 31.738281 60.503906 31.945312 60.382812 32.390625 60.246094 C 33.324219 59.964844 33.25 59.941406 33.25 60.585938 C 33.25 61.507812 33.582031 61.914062 34.402344 61.992188 C 34.78125 62.035156 34.824219 62.023438 35.550781 61.601562 C 35.964844 61.363281 36.589844 60.9375 36.9375 60.664062 C 37.289062 60.390625 37.609375 60.144531 37.667969 60.128906 C 37.734375 60.101562 37.777344 60.179688 37.8125 60.367188 C 37.847656 60.621094 37.914062 60.6875 38.410156 61.011719 C 39.34375 61.625 40.066406 61.695312 41.195312 61.285156 C 41.589844 61.148438 42.050781 60.980469 42.230469 60.925781 C 42.566406 60.824219 42.804688 60.535156 42.804688 60.238281 C 42.804688 60.070312 42.644531 60.085938 41.761719 60.316406 C 40.226562 60.722656 39.019531 60.636719 38.753906 60.109375 C 38.558594 59.71875 38.550781 59.441406 38.730469 59.167969 C 38.824219 59.023438 38.925781 58.835938 38.953125 58.75 C 39.019531 58.539062 38.867188 58.027344 38.71875 57.960938 C 38.011719 57.679688 37.832031 57.644531 37.210938 57.714844 C 36.554688 57.78125 35.105469 58.28125 33.53125 58.972656 C 33.109375 59.152344 32.75 59.304688 32.71875 59.304688 C 32.699219 59.304688 32.476562 59.429688 32.230469 59.582031 C 31.980469 59.726562 31.65625 59.914062 31.507812 59.992188 C 30.902344 60.308594 29.933594 61.097656 29.625 61.53125 C 29.335938 61.921875 29.121094 62.125 28.980469 62.125 C 28.949219 62.125 28.949219 61.933594 28.980469 61.703125 C 29.015625 61.386719 29.085938 61.214844 29.300781 60.929688 C 29.453125 60.730469 29.675781 60.367188 29.796875 60.121094 C 29.976562 59.761719 30.171875 59.542969 30.824219 58.960938 C 33.078125 56.957031 34.273438 55.296875 34.761719 53.460938 C 35.117188 52.117188 35.003906 51.9375 34.113281 52.40625 Z M 34.363281 53.253906 C 34.265625 53.730469 33.121094 55.621094 32.3125 56.667969 C 31.824219 57.296875 31.292969 57.789062 31.199219 57.695312 C 31.183594 57.679688 31.304688 57.457031 31.464844 57.203125 C 31.628906 56.949219 31.910156 56.46875 32.089844 56.128906 C 32.605469 55.128906 32.757812 54.886719 33.101562 54.429688 C 33.5625 53.816406 34.257812 53.019531 34.34375 53.019531 C 34.386719 53.019531 34.394531 53.117188 34.363281 53.253906 Z M 37.777344 58.777344 C 37.777344 58.859375 37.589844 59.015625 37.289062 59.199219 C 36.613281 59.601562 35.464844 60.171875 35.328125 60.171875 C 35.261719 60.171875 35.082031 60.222656 34.933594 60.289062 C 34.703125 60.382812 34.617188 60.390625 34.386719 60.308594 C 34.234375 60.257812 34.113281 60.214844 34.113281 60.207031 C 34.113281 60.203125 34.148438 60.09375 34.191406 59.976562 C 34.335938 59.550781 35.3125 59.023438 36.296875 58.835938 C 36.605469 58.777344 36.878906 58.714844 36.898438 58.691406 C 36.921875 58.671875 37.128906 58.65625 37.359375 58.65625 C 37.710938 58.65625 37.777344 58.675781 37.777344 58.777344 Z M 37.777344 58.777344 "/>
<path style=" stroke:none;fill-rule:nonzero;fill:rgb(0%,0%,0%);fill-opacity:1;" d="M 63.984375 52.976562 C 63.882812 53.035156 63.695312 53.273438 63.574219 53.503906 C 63.410156 53.824219 63.019531 54.25 62.015625 55.222656 C 60.507812 56.683594 60.464844 56.71875 59.585938 57.21875 C 58.925781 57.609375 58.933594 57.601562 58.160156 57.457031 C 57.964844 57.421875 57.957031 57.40625 57.957031 56.929688 C 57.957031 56.453125 57.964844 56.445312 58.28125 56.128906 C 58.753906 55.65625 58.726562 55.535156 58.078125 55.347656 C 57.230469 55.101562 56.390625 55.035156 55.492188 55.144531 C 54.78125 55.238281 54.675781 55.269531 54.09375 55.605469 C 53.75 55.800781 53.050781 56.183594 52.535156 56.453125 C 52.023438 56.726562 51.472656 57.042969 51.3125 57.175781 C 49.886719 58.308594 48.636719 59.089844 48.253906 59.089844 C 48.019531 59.089844 47.980469 59.058594 47.910156 58.867188 C 47.796875 58.527344 47.808594 58.402344 48.03125 57.949219 C 48.320312 57.371094 48.691406 56.804688 49.1875 56.191406 C 49.53125 55.757812 49.691406 55.628906 50 55.507812 C 50.601562 55.261719 51.15625 55.117188 51.480469 55.117188 C 51.867188 55.117188 51.925781 54.992188 51.652344 54.746094 C 51.0625 54.214844 49.484375 54.515625 48.492188 55.347656 C 47.996094 55.765625 47.558594 56.386719 47.085938 57.332031 C 46.617188 58.289062 46.539062 58.777344 46.761719 59.449219 C 46.925781 59.933594 47.027344 60.035156 47.472656 60.203125 C 47.78125 60.316406 47.839844 60.316406 48.371094 60.207031 C 48.980469 60.085938 49.324219 59.890625 50.488281 59.023438 C 51.070312 58.589844 51.832031 58.078125 51.894531 58.078125 C 51.925781 58.078125 51.917969 58.128906 51.894531 58.195312 C 51.796875 58.453125 51.996094 58.867188 52.363281 59.160156 C 52.6875 59.414062 52.773438 59.449219 53.101562 59.449219 C 53.3125 59.449219 53.667969 59.394531 53.90625 59.3125 C 54.136719 59.242188 54.511719 59.125 54.726562 59.058594 C 54.957031 58.996094 55.351562 58.769531 55.660156 58.546875 C 55.953125 58.332031 56.449219 57.96875 56.757812 57.753906 L 57.324219 57.339844 L 57.289062 57.621094 C 57.261719 57.917969 57.402344 58.433594 57.546875 58.527344 C 57.8125 58.699219 58.746094 58.519531 59.617188 58.136719 C 60.125 57.910156 60.269531 57.796875 61.632812 56.453125 C 62.4375 55.65625 63.25 54.828125 63.445312 54.609375 L 63.789062 54.214844 L 63.746094 55.40625 C 63.703125 56.582031 63.695312 56.605469 63.445312 57.140625 L 63.1875 57.679688 L 62.582031 57.957031 C 61.785156 58.308594 61.03125 58.808594 60.5625 59.292969 C 59.894531 59.984375 59.867188 60.714844 60.492188 61.105469 C 60.699219 61.226562 60.800781 61.242188 61.261719 61.207031 L 61.800781 61.164062 L 62.488281 60.453125 C 63.136719 59.796875 63.960938 58.664062 64.261719 58.027344 C 64.363281 57.816406 64.722656 57.542969 65.605469 57.015625 C 65.777344 56.90625 66.480469 56.566406 66.699219 56.480469 C 66.863281 56.421875 66.855469 56.421875 66.667969 56.726562 C 66.230469 57.429688 66.460938 58.148438 67.179688 58.332031 C 67.453125 58.402344 67.652344 58.402344 68.003906 58.34375 C 68.429688 58.28125 68.585938 58.199219 69.554688 57.550781 C 70.265625 57.074219 70.890625 56.582031 71.386719 56.105469 L 72.140625 55.382812 L 72.191406 55.707031 C 72.234375 56.046875 72.566406 56.707031 72.6875 56.707031 C 72.722656 56.707031 72.75 56.757812 72.75 56.8125 C 72.75 56.878906 72.792969 56.902344 72.859375 56.871094 C 72.925781 56.851562 73.023438 56.878906 73.097656 56.9375 C 73.261719 57.074219 73.683594 57.246094 74.324219 57.429688 C 74.835938 57.578125 74.878906 57.578125 75.308594 57.472656 C 75.558594 57.40625 75.820312 57.355469 75.882812 57.355469 C 76.128906 57.355469 77.320312 56.691406 77.644531 56.367188 C 77.996094 56.027344 78.023438 55.875 77.792969 55.601562 C 77.621094 55.398438 77.390625 55.457031 76.636719 55.882812 C 76.0625 56.199219 75.796875 56.300781 75.292969 56.394531 C 74.484375 56.546875 74.066406 56.46875 73.542969 56.078125 C 73.203125 55.832031 72.824219 55.273438 72.824219 55.042969 C 72.824219 54.886719 73.148438 54.269531 73.339844 54.0625 L 73.550781 53.835938 L 73.375 53.65625 C 73.277344 53.546875 73.089844 53.453125 72.910156 53.417969 C 72.574219 53.359375 71.523438 53.542969 71.027344 53.738281 C 70.847656 53.808594 70.351562 54.011719 69.914062 54.175781 C 69.484375 54.351562 68.960938 54.566406 68.75 54.660156 C 68.550781 54.753906 68.335938 54.828125 68.269531 54.828125 C 68.214844 54.828125 68.140625 54.863281 68.113281 54.90625 C 68.089844 54.949219 67.945312 55.035156 67.804688 55.09375 C 67.660156 55.152344 67.414062 55.28125 67.257812 55.382812 C 66.167969 56.054688 64.996094 56.742188 64.792969 56.828125 L 64.550781 56.929688 L 64.578125 55.175781 C 64.601562 54.019531 64.636719 53.347656 64.695312 53.210938 C 64.742188 53.09375 64.773438 52.992188 64.757812 52.976562 C 64.671875 52.890625 64.140625 52.890625 63.984375 52.976562 Z M 71.675781 54.804688 C 71.660156 55.269531 71.070312 55.875 69.828125 56.71875 C 68.636719 57.523438 68.269531 57.667969 67.796875 57.523438 C 66.453125 57.117188 67.976562 55.746094 70.640625 54.972656 C 71.070312 54.847656 71.4375 54.734375 71.453125 54.710938 C 71.53125 54.632812 71.675781 54.695312 71.675781 54.804688 Z M 57.203125 56.128906 C 57.273438 56.242188 56.773438 56.863281 56.242188 57.328125 C 55.574219 57.898438 54.386719 58.488281 53.503906 58.683594 C 53.238281 58.742188 52.886719 58.503906 52.824219 58.230469 C 52.742188 57.867188 52.84375 57.617188 53.203125 57.269531 C 53.476562 57 53.710938 56.863281 54.472656 56.5625 C 54.992188 56.359375 55.585938 56.164062 55.800781 56.132812 C 56.371094 56.046875 57.152344 56.039062 57.203125 56.128906 Z M 62.519531 59.03125 C 62.417969 59.488281 61.691406 60.1875 61.144531 60.347656 C 61.03125 60.382812 60.960938 60.347656 60.875 60.207031 C 60.757812 60.027344 60.757812 60.015625 60.988281 59.730469 C 61.296875 59.347656 61.957031 58.894531 62.273438 58.851562 C 62.410156 58.835938 62.523438 58.816406 62.539062 58.816406 C 62.554688 58.808594 62.539062 58.910156 62.519531 59.03125 Z M 62.519531 59.03125 "/>
<path style=" stroke:none;fill-rule:nonzero;fill:rgb(0%,0%,0%);fill-opacity:1;" d="M 17.96875 55.082031 C 17.230469 55.507812 16.855469 55.902344 16.417969 56.734375 C 15.140625 59.148438 13.574219 61.300781 13.222656 61.140625 C 13.15625 61.113281 12.683594 61.074219 12.164062 61.054688 L 11.230469 61.023438 L 10.550781 61.4375 C 9.480469 62.085938 9.445312 62.125 9.0625 62.945312 C 8.609375 63.894531 8.554688 64.269531 8.796875 64.652344 C 8.890625 64.804688 9.078125 65.011719 9.207031 65.113281 L 9.445312 65.292969 L 9.875 65.171875 C 10.449219 65.019531 11.355469 64.476562 12.296875 63.742188 C 12.710938 63.410156 13.078125 63.132812 13.101562 63.132812 C 13.121094 63.132812 13.144531 63.242188 13.144531 63.367188 C 13.148438 63.769531 13.34375 64.441406 13.5 64.617188 C 13.625 64.746094 13.761719 64.78125 14.21875 64.824219 L 14.78125 64.867188 L 15.382812 64.507812 C 15.707031 64.3125 16.007812 64.144531 16.042969 64.144531 C 16.082031 64.144531 16.171875 64.21875 16.257812 64.3125 C 16.351562 64.414062 16.699219 64.570312 17.113281 64.710938 L 17.8125 64.933594 L 18.398438 64.714844 C 18.730469 64.59375 19.097656 64.433594 19.226562 64.355469 C 19.449219 64.21875 19.964844 63.648438 19.964844 63.539062 C 19.964844 63.429688 19.65625 63.511719 19.304688 63.71875 C 18.628906 64.125 18.304688 64.230469 17.855469 64.226562 C 17.496094 64.21875 17.394531 64.183594 17.15625 63.980469 C 17.007812 63.847656 16.878906 63.710938 16.878906 63.667969 C 16.878906 63.632812 17.015625 63.53125 17.1875 63.445312 C 18.523438 62.789062 20.289062 60.679688 20.675781 59.292969 C 20.753906 59.003906 20.753906 58.945312 20.613281 58.707031 C 20.496094 58.503906 20.382812 58.425781 20.167969 58.359375 C 19.894531 58.289062 19.835938 58.300781 19.339844 58.554688 C 18.980469 58.742188 18.722656 58.9375 18.542969 59.160156 C 18.398438 59.34375 18.078125 59.730469 17.816406 60.027344 C 17.488281 60.410156 17.257812 60.785156 17.007812 61.328125 C 16.8125 61.746094 16.625 62.152344 16.582031 62.230469 C 16.546875 62.3125 16.453125 62.570312 16.382812 62.808594 L 16.246094 63.242188 L 15.578125 63.582031 C 14.851562 63.945312 14.75 63.972656 14.484375 63.847656 C 13.816406 63.546875 14.039062 62.390625 15.082031 60.785156 C 15.414062 60.265625 15.726562 59.804688 15.777344 59.753906 C 15.828125 59.703125 15.871094 59.625 15.871094 59.585938 C 15.871094 59.542969 15.945312 59.40625 16.035156 59.285156 C 16.128906 59.152344 16.257812 58.921875 16.339844 58.765625 C 16.410156 58.605469 16.488281 58.425781 16.519531 58.367188 C 16.769531 57.816406 17.609375 56.417969 18.054688 55.78125 C 18.652344 54.9375 18.621094 54.703125 17.96875 55.082031 Z M 20.066406 59.160156 C 20.042969 59.515625 19.449219 60.585938 18.980469 61.105469 C 18.773438 61.34375 18.378906 61.695312 18.113281 61.890625 C 17.847656 62.085938 17.550781 62.316406 17.460938 62.40625 C 17.367188 62.492188 17.273438 62.542969 17.25 62.519531 C 17.1875 62.460938 18.257812 60.433594 18.558594 60.042969 C 18.910156 59.585938 19.792969 58.859375 19.957031 58.886719 C 20.039062 58.910156 20.074219 58.988281 20.066406 59.160156 Z M 12.726562 61.734375 C 12.683594 61.957031 12.007812 62.789062 11.605469 63.105469 C 11.167969 63.460938 10.558594 63.691406 10.167969 63.65625 L 9.898438 63.632812 L 9.933594 63.34375 C 9.976562 63.027344 10.285156 62.636719 10.859375 62.179688 C 11.304688 61.828125 11.65625 61.675781 12.171875 61.617188 C 12.710938 61.558594 12.753906 61.566406 12.726562 61.734375 Z M 12.726562 61.734375 "/>
</g>
</svg>
