<svg xmlns="http://www.w3.org/2000/svg" fill="none" viewBox="0 0 400 400" height="250" width="250"><path fill="#000000" fill-rule="evenodd" d="M194.2 34.1752C192.7 46.6752 192.8 79.1751 195 83.3751C200.1 93.5751 205 85.5751 206.1 65.3751C207 47.7751 207.8 39.2752 207.9 34.7752C208.3 24.7752 195.2 25.5752 194.2 34.1752ZM261.1 36.9752C254.1 39.7752 215 110.875 215 120.875C215 123.675 219.3 124.575 222.6 122.375C225.9 120.175 233.8 107.975 243.5 89.8751C254.3 69.8751 265.8 49.0752 268.6 44.6752C273 37.6752 269.2 33.7752 261.1 36.9752ZM129.5 52.2752C127.7 53.5752 128 54.1752 133.4 64.4752C154 103.275 155.1 107.875 165.3 106.575C173 105.575 173 105.075 162.6 85.8751C150.7 63.6751 144.2 53.1752 141.9 51.9752C139.3 50.4752 131.7 50.6752 129.5 52.2752ZM295.5 58.7752C289.7 61.1752 259 97.5751 259 102.075C259 110.475 274.2 98.5751 301.3 69.0751C309.4 60.1751 306.2 54.3752 295.5 58.7752ZM90.2998 78.5751C81.1998 80.3751 94.6998 96.8751 105.3 96.8751C113.8 96.8751 114.1 92.8751 106.2 85.3751C101.5 80.7751 96.7998 77.2751 90.2998 78.5751ZM331.4 92.9752C325.8 95.9752 318.7 102.375 306.2 110.675C291.4 120.475 275.7 131.575 271 135.675C262.9 142.675 269.6 144.475 279.7 137.875C283.1 135.675 293.4 129.275 302.6 123.775C324.5 110.575 346.9 95.8751 346.9 94.8751C347 90.9751 337.4 89.7752 331.4 92.9752ZM195.2 99.0751C193.4 100.875 193.7 110.375 195.6 112.275C202.4 119.075 211.2 106.775 204.9 99.2753C203.5 97.5753 196.8 97.4751 195.2 99.0751ZM113.4 108.275C111 109.975 112 111.375 127.9 128.375C146.6 148.375 148.3 149.375 156.4 145.675C160.1 143.975 159.7 143.175 151.7 134.075C131.2 110.975 120 103.475 113.4 108.275ZM56.5996 130.175C52.8996 132.975 55.2 134.375 78 143.375C100.9 152.375 113.4 158.775 130.9 170.075C140.8 176.475 157.3 176.775 152.1 170.375C140.3 156.375 64.2996 124.275 56.5996 130.175ZM335 148.975C279.7 168.775 275.4 170.875 279.2 174.675C281 176.475 283.7 176.175 295.1 172.775C369.7 150.575 371.1 151.375 362 144.775C357.3 141.375 355.2 141.675 335 148.975ZM244 153.075C236.4 159.675 235.7 161.775 240.4 163.075C249.9 165.575 263.2 152.475 263.1 152.575C263.6 152.075 264 151.375 263.9 150.675C263.9 149.975 263.5 149.275 263 148.775C258.1 144.675 252 146.075 244 153.075ZM193.9 165.075L191.8 173.075C187.7 189.075 176.4 202.875 167.5 202.875C161 202.875 164.9 208.375 172.2 209.575C181.9 211.075 190.5 227.475 190.9 243.475C191.2 254.275 202.2 254.475 204.3 246.675C209.8 226.475 214.3 218.375 226 209.375C233.2 203.875 233.3 202.875 227.2 198.775C217.4 192.175 215.1 188.675 209.3 171.475C202.8 152.075 195.5 159.175 193.9 165.075ZM51.5 172.475C49.5 174.475 49.4996 177.175 51.5996 181.575C54.1996 186.975 57.8 188.175 87 192.375C96.6 193.775 108.5 195.875 113.4 197.075C123.5 199.575 124.4 199.075 123.7 192.675C123 186.675 120.8 184.375 114.4 182.375C104.9 179.575 102.5 179.075 82.1997 175.875C71.4997 174.175 60.9997 172.375 58.6997 171.875C53.1997 170.675 53.4 170.675 51.5 172.475ZM204.5 191.675C206.5 194.675 209.6 197.375 213.7 199.775C220.4 203.675 221 204.375 218 205.375C215 206.375 207.3 213.075 203.8 217.775L200.7 221.975L197.9 217.475C195.1 213.075 188.6 207.575 184.7 206.375C182.9 205.775 183.2 205.275 187.7 201.375C196.5 193.675 198.5 182.275 200.4 185.575C201 186.375 202.8 189.175 204.5 191.675ZM258.2 200.875C253.9 202.575 259.7 212.075 265.8 213.175C276.2 215.175 322 214.975 322 212.975C322 210.075 316.5 204.175 312.7 202.975C307.1 201.275 261.8 199.475 258.2 200.875ZM327.4 204.275C325.4 209.575 334 214.375 349 216.175C364.2 217.975 366.2 216.875 360.3 209.775C355.3 203.975 329.2 199.575 327.4 204.275ZM130.4 210.575C125.1 215.875 132.4 226.175 141.1 225.675C147.1 225.375 148.6 222.275 145.9 215.775C143.7 210.275 134 207.075 130.4 210.575ZM90 215.475C77.7 217.975 60.5 220.875 51 221.875C38.1 223.375 34 224.475 34 226.775C34 230.775 42.4999 235.375 48.3999 234.575C50.5999 234.275 58.3 233.275 65.5 232.475C94.8 228.875 115 223.575 113 219.975C110.1 214.575 102 212.975 90 215.475ZM275.1 240.575C260.8 247.475 277.7 258.575 293.1 252.375C297.9 250.475 293.6 244.675 288.8 242.575C280.9 239.075 278.9 238.775 275.1 240.575ZM242 247.675C236.2 249.575 234.6 254.675 238.9 258.075C240.5 259.375 249.2 267.075 258.3 275.175C295.8 308.775 306.7 316.875 311.4 314.775C318.9 311.375 313.3 304.675 273.5 270.275C251.9 251.575 245 246.675 242 247.675ZM149.2 254.975C143 258.075 86 317.475 86 320.775C86 327.175 99.4996 325.375 106.1 318.075C111.1 312.575 126.4 296.575 147.8 274.675C166.8 255.175 167.5 245.775 149.2 254.975ZM308.3 258.375C305.1 259.775 302.8 264.375 304.7 265.775C330.4 283.775 343.1 287.275 343.1 276.275C343 270.075 314.8 255.575 308.3 258.375ZM86 269.975C71 277.575 70.6 277.975 74.5 280.475C81.9 285.275 117.4 269.375 110.5 264.275C106.3 261.175 100.8 262.475 86 269.975ZM198.7 270.175C194.1 273.675 192.4 289.475 203.7 289.675C208.1 289.775 211.4 285.175 211.2 277.475C211 269.475 204.5 265.675 198.7 270.175ZM165.6 283.175C158.4 291.975 140.9 321.275 140.9 324.575C140.9 333.375 158 313.475 172.2 287.875C178.1 277.475 173.1 273.975 165.6 283.175ZM236.9 283.475C232.8 288.475 269.4 333.875 275.3 331.175C280.5 328.775 278.8 325.775 260.6 304.975C241.7 283.075 239.1 280.775 236.9 283.475ZM199.2 306.675C194.8 309.475 191.8 366.775 196 370.075C205.1 377.475 209 367.175 208.9 335.975C208.9 307.875 206.9 301.875 199.2 306.675Z" clip-rule="evenodd"></path></svg>